<?xml version="1.0" encoding="utf-8"?>
<!-- Generator: Adobe Illustrator 16.0.0, SVG Export Plug-In . SVG Version: 6.00 Build 0)  -->
<!DOCTYPE svg PUBLIC "-//W3C//DTD SVG 1.1//EN" "http://www.w3.org/Graphics/SVG/1.1/DTD/svg11.dtd">
<svg version="1.1" id="Layer_2" xmlns="http://www.w3.org/2000/svg" xmlns:xlink="http://www.w3.org/1999/xlink" x="0px" y="0px"
	 width="37.999px" height="13px" viewBox="0 0 37.999 13" enable-background="new 0 0 37.999 13" xml:space="preserve">
<g>
	<polygon fill="#FFFFFF" points="37.772,6.5 30.349,0.226 30.349,3.864 0.227,3.864 0.227,9.136 30.349,9.136 30.349,12.774 	"/>
	<path fill="#FFFFFF" d="M30.349,13c-0.031,0-0.063-0.006-0.095-0.021c-0.08-0.038-0.131-0.116-0.131-0.205V9.361H0.227
		C0.102,9.361,0,9.26,0,9.136V3.864C0,3.74,0.102,3.639,0.227,3.639h29.896V0.226c0-0.088,0.051-0.167,0.131-0.205
		c0.08-0.036,0.174-0.023,0.241,0.032l7.423,6.274c0.051,0.043,0.081,0.106,0.081,0.173s-0.03,0.13-0.081,0.173l-7.423,6.274
		C30.453,12.982,30.402,13,30.349,13z M0.452,8.91h29.896c0.127,0,0.227,0.102,0.227,0.226v3.151L37.423,6.5l-6.848-5.787v3.151
		c0,0.125-0.1,0.227-0.227,0.227H0.452V8.91z"/>
</g>
</svg>
