<?xml version="1.0" encoding="utf-8"?>
<!-- Generator: Adobe Illustrator 16.0.0, SVG Export Plug-In . SVG Version: 6.00 Build 0)  -->
<!DOCTYPE svg PUBLIC "-//W3C//DTD SVG 1.1//EN" "http://www.w3.org/Graphics/SVG/1.1/DTD/svg11.dtd">
<svg version="1.1" id="Layer_2" xmlns="http://www.w3.org/2000/svg" xmlns:xlink="http://www.w3.org/1999/xlink" x="0px" y="0px"
	 width="37.999px" height="13px" viewBox="0 0 37.999 13" enable-background="new 0 0 37.999 13" xml:space="preserve">
<g>
	<polygon fill="#FFFFFF" points="0.227,6.5 7.65,12.774 7.65,9.136 37.772,9.136 37.772,3.864 7.65,3.864 7.65,0.226 	"/>
	<path fill="#FFFFFF" d="M7.65,0c0.031,0,0.063,0.006,0.095,0.021c0.08,0.038,0.131,0.116,0.131,0.205v3.413h29.896
		c0.125,0,0.227,0.102,0.227,0.226v5.271c0,0.124-0.102,0.226-0.227,0.226H7.876v3.413c0,0.088-0.051,0.167-0.131,0.205
		c-0.08,0.036-0.174,0.023-0.241-0.032L0.081,6.673C0.03,6.63,0,6.566,0,6.5s0.03-0.13,0.081-0.173l7.423-6.274
		C7.546,0.018,7.597,0,7.65,0z M37.547,4.09H7.65c-0.127,0-0.227-0.102-0.227-0.226V0.713L0.576,6.5l6.848,5.787V9.136
		c0-0.125,0.1-0.227,0.227-0.227h29.896V4.09z"/>
</g>
</svg>
